<svg width="310" height="267" viewBox="0 0 310 267" fill="none" xmlns="http://www.w3.org/2000/svg">
<g opacity="0.9" clip-path="url(#clip0)">
<mask id="mask0" mask-type="alpha" maskUnits="userSpaceOnUse" x="0" y="0" width="310" height="267">
<path d="M0.42511 265.477L155.909 0.0800018L309.932 266.856L0.42511 265.477Z" fill="#C4C4C4"/>
</mask>
<g mask="url(#mask0)">
<path d="M-2.90106 263.402L152.526 -0.555397L308.629 263.784L-2.90106 263.402Z" fill="url(#paint0_linear)"/>
<path d="M-3.08199 263.435L-158.232 -2.24744L154.693 -0.766543L-3.08199 263.435Z" fill="url(#paint1_linear)"/>
<path d="M307.895 264.29L150.983 -0.658506L464.807 -0.658506L307.895 264.29Z" fill="#1B3E3A"/>
<path d="M151.213 1.25162L309.576 -263.959L465.321 -0.227317L151.213 1.25162Z" fill="#1B3E3A"/>
<path d="M-158.831 -0.658506L-0.205489 264.29L156.818 -0.658506H89.5224L23.8286 125.371V-0.658506H-32.251L-32.251 125.371L-102.751 -0.658506H-158.831Z" fill="url(#paint2_linear)" stroke="url(#paint3_linear)"/>
<path d="M385.815 -3.08111H462.617L307.692 263.118L-1.32559 263.118L152.277 -3.08111H225.16L109.174 197.107L267.479 197.107L385.815 -3.08111Z" fill="url(#paint4_linear)"/>
<path fill-rule="evenodd" clip-rule="evenodd" d="M-2.62598 263.836L151.805 -3.79875H226.463L110.477 196.389L267.012 196.389L385.349 -3.79875H463.923L308.162 263.836L-2.62598 263.836ZM-0.0252756 262.401L307.221 262.401L461.312 -2.36344H386.283L267.945 197.824L107.871 197.824L223.857 -2.36344H152.749L-0.0252756 262.401Z" fill="url(#paint5_linear)"/>
</g>
</g>
<defs>
<linearGradient id="paint0_linear" x1="-2.90106" y1="263.402" x2="304.848" y2="81.6635" gradientUnits="userSpaceOnUse">
<stop stop-color="#142823"/>
<stop offset="1" stop-color="#142823"/>
</linearGradient>
<linearGradient id="paint1_linear" x1="-3.08197" y1="263.435" x2="-1.4098" y2="-89.8208" gradientUnits="userSpaceOnUse">
<stop stop-color="#142823"/>
<stop offset="1" stop-color="#142823"/>
</linearGradient>
<linearGradient id="paint2_linear" x1="-158.831" y1="131.816" x2="156.818" y2="131.816" gradientUnits="userSpaceOnUse">
<stop offset="0.046875" stop-color="#5CC4B6"/>
<stop offset="1" stop-color="#0C2421"/>
</linearGradient>
<linearGradient id="paint3_linear" x1="-158.831" y1="131.816" x2="156.818" y2="131.816" gradientUnits="userSpaceOnUse">
<stop offset="0.046875" stop-color="#5CC4B6"/>
<stop offset="1" stop-color="#0C2421"/>
</linearGradient>
<linearGradient id="paint4_linear" x1="-1.32559" y1="130.019" x2="462.617" y2="130.019" gradientUnits="userSpaceOnUse">
<stop stop-color="#25BEAA"/>
<stop offset="1" stop-color="#293937"/>
</linearGradient>
<linearGradient id="paint5_linear" x1="-2.62598" y1="130.019" x2="463.923" y2="130.019" gradientUnits="userSpaceOnUse">
<stop stop-color="#25BEAA"/>
<stop offset="1" stop-color="#293937"/>
</linearGradient>
<clipPath id="clip0">
<rect width="266.776" height="309.507" fill="white" transform="translate(0.42511 266.856) rotate(-90)"/>
</clipPath>
</defs>
</svg>
