<svg width="357" height="359" viewBox="0 0 357 359" fill="none" xmlns="http://www.w3.org/2000/svg">
<mask id="mask0" mask-type="alpha" maskUnits="userSpaceOnUse" x="0" y="25" width="268" height="309">
<path d="M0 177.85L267.351 25.7519V333.798L0 177.85Z" fill="#C4C4C4"/>
</mask>
<g mask="url(#mask0)">
<path d="M-261.562 24.726L4.72826 179.304L-261.947 334.554L-261.562 24.726Z" fill="url(#paint0_linear)"/>
<path d="M-261.595 24.5461L6.43521 -129.757L4.94078 181.459L-261.595 24.5461Z" fill="url(#paint1_linear)"/>
<path d="M-262.458 333.824L4.83206 177.769L4.83206 489.879L-262.458 333.824Z" fill="#1B3E3A"/>
<path d="M4.83221 179.959L270.586 24.7986L270.586 335.12L4.83221 179.959Z" fill="#123430"/>
<path d="M4.26601 -130.494L271.102 24.8197L4.24044 180.179L4.26601 -130.494Z" fill="#123430"/>
<path d="M2.90537 177.998L270.459 335.496L4.39677 490.39L2.90537 177.998Z" fill="#1B3E3A"/>
<path d="M4.83206 -130.353L-262.458 27.4062L4.83206 183.572V116.644L-122.311 51.3091H4.83206V-4.46432H-122.311L4.83206 -74.5794V-130.353Z" fill="url(#paint2_linear)" stroke="url(#paint3_linear)"/>
<path d="M4.83188 -130.353L272.122 27.4062L4.83188 183.572V116.644L131.975 51.3091H4.83188V-4.46432H131.975L4.83188 -74.5794V-130.353Z" fill="url(#paint4_linear)" stroke="url(#paint5_linear)"/>
<path d="M7.2761 411.319V487.701L-261.276 333.622V26.2929L7.2761 179.056V251.541L-194.681 136.189V293.629L7.2761 411.319Z" fill="url(#paint6_linear)"/>
<path fill-rule="evenodd" clip-rule="evenodd" d="M-262 24.9996L7.99993 178.587V252.837L-193.957 137.485V293.165L7.99993 410.855V489L-262 334.09V24.9996ZM-260.552 27.5861V333.154L6.55221 486.403V411.784L-195.405 294.093V134.893L6.55221 250.245V179.526L-260.552 27.5861Z" fill="url(#paint7_linear)"/>
<path d="M5.54845 411.441V487.936L271.405 333.628V25.8413L5.54845 178.832V251.425L205.478 135.901V293.575L5.54845 411.441Z" fill="url(#paint8_linear)"/>
<path fill-rule="evenodd" clip-rule="evenodd" d="M272.122 24.5461L4.83187 178.362V252.723L204.762 137.199V293.11L4.83187 410.976V489.237L272.122 334.097V24.5461ZM270.688 27.1364V333.16L6.26506 486.636V411.906L206.195 294.041V134.603L6.26506 250.127V179.303L270.688 27.1364Z" fill="url(#paint9_linear)"/>
</g>
<defs>
<linearGradient id="paint0_linear" x1="-261.562" y1="24.726" x2="-82.0724" y2="333.038" gradientUnits="userSpaceOnUse">
<stop stop-color="#142823"/>
<stop offset="1" stop-color="#142823"/>
</linearGradient>
<linearGradient id="paint1_linear" x1="-261.595" y1="24.5461" x2="94.7824" y2="26.2573" gradientUnits="userSpaceOnUse">
<stop stop-color="#142823"/>
<stop offset="1" stop-color="#142823"/>
</linearGradient>
<linearGradient id="paint2_linear" x1="-128.813" y1="-130.353" x2="-128.813" y2="183.572" gradientUnits="userSpaceOnUse">
<stop offset="0.046875" stop-color="#5CC4B6"/>
<stop offset="1" stop-color="#0C2421"/>
</linearGradient>
<linearGradient id="paint3_linear" x1="-128.813" y1="-130.353" x2="-128.813" y2="183.572" gradientUnits="userSpaceOnUse">
<stop offset="0.046875" stop-color="#5CC4B6"/>
<stop offset="1" stop-color="#0C2421"/>
</linearGradient>
<linearGradient id="paint4_linear" x1="138.477" y1="-130.353" x2="138.477" y2="183.572" gradientUnits="userSpaceOnUse">
<stop stop-color="#67F0DE"/>
<stop offset="0.875" stop-color="#29EFD5" stop-opacity="0.22"/>
</linearGradient>
<linearGradient id="paint5_linear" x1="138.477" y1="-130.353" x2="138.477" y2="183.572" gradientUnits="userSpaceOnUse">
<stop stop-color="#67F0DE"/>
<stop offset="0.875" stop-color="#29EFD5" stop-opacity="0.22"/>
</linearGradient>
<linearGradient id="paint6_linear" x1="-127" y1="26.2929" x2="-127" y2="487.701" gradientUnits="userSpaceOnUse">
<stop stop-color="#25BEAA"/>
<stop offset="1" stop-color="#293937"/>
</linearGradient>
<linearGradient id="paint7_linear" x1="-127" y1="24.9996" x2="-127" y2="489" gradientUnits="userSpaceOnUse">
<stop stop-color="#25BEAA"/>
<stop offset="1" stop-color="#293937"/>
</linearGradient>
<linearGradient id="paint8_linear" x1="138.477" y1="25.8413" x2="138.477" y2="487.936" gradientUnits="userSpaceOnUse">
<stop stop-color="#246A61"/>
<stop offset="1" stop-color="#0B1E1B"/>
</linearGradient>
<linearGradient id="paint9_linear" x1="138.477" y1="24.5461" x2="138.477" y2="489.237" gradientUnits="userSpaceOnUse">
<stop stop-color="#246A61"/>
<stop offset="1" stop-color="#0B1E1B"/>
</linearGradient>
</defs>
</svg>
