<svg width="310" height="267" viewBox="0 0 310 267" fill="none" xmlns="http://www.w3.org/2000/svg">
<g opacity="0.9" clip-path="url(#clip0)">
<mask id="mask0" mask-type="alpha" maskUnits="userSpaceOnUse" x="0" y="0" width="310" height="267">
<path d="M0.42511 265.477L155.909 0.0800018L309.932 266.856L0.42511 265.477Z" fill="#C4C4C4"/>
</mask>
<g mask="url(#mask0)">
<path d="M-153.547 -3.79272L152.76 -1.16759L1.8875 266.191L-153.547 -3.79272Z" fill="url(#paint0_linear)"/>
<path d="M-153.666 -3.93302L-1.15346 -271.138L154.027 0.603361L-153.666 -3.93302Z" fill="url(#paint1_linear)"/>
<path d="M1.08183 265.808L152.078 -2.55582L308.99 269.224L1.08183 265.808Z" fill="#1B3E3A"/>
<path d="M153.179 -0.648776L303.306 -267.473L459.319 2.74965L153.179 -0.648776Z" fill="#123430"/>
<path d="M150.539 -1.40134L459.399 3.14L308.874 269.885L150.539 -1.40134Z" fill="#1B3E3A"/>
<path d="M-2.82886 -270.862L-152.968 -1.01419L154.996 2.49793L121.348 -55.7818L-20.6436 -49.6597L88.5009 -112.674L60.4611 -161.241L-48.6834 -98.2261L25.211 -222.296L-2.82886 -270.862Z" fill="url(#paint2_linear)" stroke="url(#paint3_linear)"/>
<path d="M-2.82919 -270.863L305.936 -265.963L154.995 2.49737L121.348 -55.7823L197.645 -175.689L88.5006 -112.675L60.4608 -161.241L169.605 -224.256L25.2107 -222.296L-2.82919 -270.863Z" fill="url(#paint4_linear)" stroke="url(#paint5_linear)"/>
<path d="M271.592 199.604L309.993 266.116L1.99492 265.047L-152.514 -2.57007L154.823 -2.64645L191.265 60.4722L-40.096 60.1197L39.0563 197.216L271.592 199.604Z" fill="url(#paint6_linear)"/>
<path fill-rule="evenodd" clip-rule="evenodd" d="M-153.785 -3.33743L155.209 -3.41367L192.538 61.2419L-38.823 60.8894L39.4446 196.453L271.981 198.841L311.268 266.888L1.60871 265.813L-153.785 -3.33743ZM-151.242 -1.80282L2.38115 264.28L308.719 265.345L271.205 200.368L38.6681 197.978L-41.3691 59.35L189.991 59.7025L154.438 -1.87835L-151.242 -1.80282Z" fill="url(#paint7_linear)"/>
<path d="M270.17 200.567L308.628 267.177L459.272 1.04447L304.533 -266.971L153.227 -1.98505L189.723 61.2276L303.271 -138.458L382.541 -1.1582L270.17 200.567Z" fill="url(#paint8_linear)"/>
<path fill-rule="evenodd" clip-rule="evenodd" d="M304.498 -268.454L152.376 -2.03945L189.761 62.7128L303.309 -136.973L381.693 -1.20827L269.322 200.517L308.667 268.665L460.123 1.09752L304.498 -268.454ZM304.569 -265.488L458.421 0.992318L308.59 265.69L271.02 200.616L383.391 -1.10781L303.234 -139.944L189.686 59.742L154.079 -1.93028L304.569 -265.488Z" fill="url(#paint9_linear)"/>
</g>
</g>
<defs>
<linearGradient id="paint0_linear" x1="-153.547" y1="-3.79271" x2="157.718" y2="171.857" gradientUnits="userSpaceOnUse">
<stop stop-color="#142823"/>
<stop offset="1" stop-color="#142823"/>
</linearGradient>
<linearGradient id="paint1_linear" x1="-153.666" y1="-3.93301" x2="153.099" y2="-179.113" gradientUnits="userSpaceOnUse">
<stop stop-color="#142823"/>
<stop offset="1" stop-color="#142823"/>
</linearGradient>
<linearGradient id="paint2_linear" x1="-117.555" y1="-204.625" x2="40.2696" y2="68.7351" gradientUnits="userSpaceOnUse">
<stop offset="0.046875" stop-color="#5CC4B6"/>
<stop offset="1" stop-color="#0C2421"/>
</linearGradient>
<linearGradient id="paint3_linear" x1="-117.555" y1="-204.625" x2="40.2696" y2="68.7351" gradientUnits="userSpaceOnUse">
<stop offset="0.046875" stop-color="#5CC4B6"/>
<stop offset="1" stop-color="#0C2421"/>
</linearGradient>
<linearGradient id="paint4_linear" x1="111.897" y1="-337.1" x2="269.721" y2="-63.7398" gradientUnits="userSpaceOnUse">
<stop stop-color="#67F0DE"/>
<stop offset="0.875" stop-color="#29EFD5" stop-opacity="0.22"/>
</linearGradient>
<linearGradient id="paint5_linear" x1="111.897" y1="-337.1" x2="269.721" y2="-63.7398" gradientUnits="userSpaceOnUse">
<stop stop-color="#67F0DE"/>
<stop offset="0.875" stop-color="#29EFD5" stop-opacity="0.22"/>
</linearGradient>
<linearGradient id="paint6_linear" x1="-37.2459" y1="-69.1199" x2="194.725" y2="332.666" gradientUnits="userSpaceOnUse">
<stop stop-color="#25BEAA"/>
<stop offset="1" stop-color="#293937"/>
</linearGradient>
<linearGradient id="paint7_linear" x1="-37.8961" y1="-70.2461" x2="195.378" y2="333.797" gradientUnits="userSpaceOnUse">
<stop stop-color="#25BEAA"/>
<stop offset="1" stop-color="#293937"/>
</linearGradient>
<linearGradient id="paint8_linear" x1="190.423" y1="-201.089" x2="422.739" y2="201.295" gradientUnits="userSpaceOnUse">
<stop stop-color="#246A61"/>
<stop offset="1" stop-color="#0B1E1B"/>
</linearGradient>
<linearGradient id="paint9_linear" x1="189.772" y1="-202.217" x2="423.393" y2="202.428" gradientUnits="userSpaceOnUse">
<stop stop-color="#246A61"/>
<stop offset="1" stop-color="#0B1E1B"/>
</linearGradient>
<clipPath id="clip0">
<rect width="266.776" height="309.507" fill="white" transform="translate(0.42511 266.856) rotate(-90)"/>
</clipPath>
</defs>
</svg>
